0
SECTION
2
HEADER
9
$INSUNITS
70
4
9
$ACADVER
1
AC1014
9
$HANDSEED
5
FFFF
0
ENDSEC
0
SECTION
2
TABLES
0
TABLE
2
VPORT
5
8
100
AcDbSymbolTable
0
ENDTAB
0
TABLE
2
LTYPE
5
5
100
AcDbSymbolTable
0
LTYPE
5
14
100
AcDbSymbolTableRecord
100
AcDbLinetypeTableRecord
2
BYBLOCK
70
0
0
LTYPE
5
15
100
AcDbSymbolTableRecord
100
AcDbLinetypeTableRecord
2
BYLAYER
70
0
0
ENDTAB
0
TABLE
2
LAYER
5
2
100
AcDbSymbolTable
70
2
0
LAYER
5
50
100
AcDbSymbolTableRecord
100
AcDbLayerTableRecord
2
0
70
0
6
CONTINUOUS
0
ENDTAB
0
TABLE
2
STYLE
5
3
100
AcDbSymbolTable
70
1
0
STYLE
5
11
100
AcDbSymbolTableRecord
100
AcDbTextStyleTableRecord
2
STANDARD
70
0
0
ENDTAB
0
TABLE
2
VIEW
5
6
100
AcDbSymbolTable
70
0
0
ENDTAB
0
TABLE
2
UCS
5
7
100
AcDbSymbolTable
70
0
0
ENDTAB
0
TABLE
2
APPID
5
9
100
AcDbSymbolTable
70
2
0
APPID
5
12
100
AcDbSymbolTableRecord
100
AcDbRegAppTableRecord
2
ACAD
70
0
0
ENDTAB
0
TABLE
2
DIMSTYLE
5
A
100
AcDbSymbolTable
70
1
0
ENDTAB
0
TABLE
2
BLOCK_RECORD
5
1
100
AcDbSymbolTable
70
1
0
BLOCK_RECORD
5
1F
100
AcDbSymbolTableRecord
100
AcDbBlockTableRecord
2
*MODEL_SPACE
0
BLOCK_RECORD
5
1B
100
AcDbSymbolTableRecord
100
AcDbBlockTableRecord
2
*PAPER_SPACE
0
ENDTAB
0
ENDSEC
0
SECTION
2
BLOCKS
0
BLOCK
5
20
100
AcDbEntity
100
AcDbBlockBegin
2
*MODEL_SPACE
0
ENDBLK
5
21
100
AcDbEntity
100
AcDbBlockEnd
0
BLOCK
5
1C
100
AcDbEntity
100
AcDbBlockBegin
2
*PAPER_SPACE
0
ENDBLK
5
1D
100
AcDbEntity
100
AcDbBlockEnd
0
ENDSEC
0
SECTION
2
ENTITIES
0
ARC
5
100
100
AcDbEntity
8
0
100
AcDbCircle
10
-359.63604640119286
20
-289.45577821592474
30
1.1135418246757159e-40
40
4.999999999999873
210
1.0097419586828656e-28
220
-2.7375766799049631e-41
230
1
100
AcDbArc
50
248.17176253320034
51
269.99999999999676
0
LINE
5
101
100
AcDbEntity
8
0
100
AcDbLine
10
-359.63604640119314
20
-294.45577821592462
30
2.9427267750821158e-42
11
-347.00017232358704
21
-294.45577821592519
31
-2.0194839173657902e-27
0
ARC
5
102
100
AcDbEntity
8
0
100
AcDbCircle
10
-347.00017232358687
20
-292.45577821592514
30
5.74532370373175e-42
40
2.0000000000000639
210
5.0487097934074735e-29
220
-1.0097419586828693e-27
230
1
100
AcDbArc
50
269.99999999999511
51
360
0
LINE
5
103
100
AcDbEntity
8
0
100
AcDbLine
10
-345.00017232358687
20
-292.45577821592542
30
-1.0097419586829045e-28
11
-345.00017232358431
21
-269.7742736509482
31
1.9721522630525295e-30
0
ARC
5
104
100
AcDbEntity
8
0
100
AcDbCircle
10
-355.00017232358164
20
-269.77427365094661
30
-4.9348126719662758e-40
40
9.9999999999972999
210
-1.9721522635382752e-31
220
5.2893409893929073e-30
230
1
100
AcDbArc
50
0
51
16.94921631196998
0
LINE
5
105
100
AcDbEntity
8
0
100
AcDbLine
10
-345.43453710581343
20
-266.85903388712939
30
-1.0097419586828948e-27
11
-349.84512685697348
21
-252.38677909063696
31
2.5243548967072378e-28
0
ARC
5
106
100
AcDbEntity
8
0
100
AcDbCircle
10
-357.88026043990112
20
-254.83558049224396
30
-1.83850358519416e-41
40
8.4000000000002792
210
-1.4373274402767604e-29
220
-5.5922995523671871e-29
230
1
100
AcDbArc
50
16.949216311968758
51
41.751149055671277
0
SPLINE
5
107
100
AcDbEntity
8
0
100
AcDbSpline
70
0
71
3
72
12
73
8
74
0
42
0.000000001
43
0.0000000001
44
0.0000000001
40
0
40
0
40
0
40
0
40
0.11841746489694201
40
0.11841746489694201
40
0.19474041722706101
40
0.19474041722706101
40
0.27197965477024499
40
0.27197965477024499
40
0.27197965477024499
40
0.27197965477024499
10
-354.02476940399367
20
-248.15553727339869
30
0
10
-353.63004456276065
20
-248.15535571101151
30
0
10
-353.23567535433108
20
-248.23356570621337
30
0
10
-352.6301096101181
20
-248.46942912236725
30
0
10
-352.40309154101817
20
-248.58917051722887
30
0
10
-351.98035924184364
20
-248.87887694942322
30
0
10
-351.78488802349557
20
-249.0495395538689
30
0
10
-351.61350925578574
20
-249.24206538875583
30
0
0
LINE
5
108
100
AcDbEntity
8
0
100
AcDbLine
10
-354.02476940399367
20
-248.15728764942139
30
0
11
-360.79187961275773
21
-248.15728764941994
31
1.0097419586828951e-27
0
SPLINE
5
109
100
AcDbEntity
8
0
100
AcDbSpline
70
0
71
3
72
18
73
14
74
0
42
0.000000001
43
0.0000000001
44
0.0000000001
40
0
40
0
40
0
40
0
40
0.21012850079702
40
0.21012850079702
40
0.54381303691611604
40
0.54381303691611604
40
0.61582295924060804
40
0.61582295924060804
40
0.676614597580809
40
0.676614597580809
40
0.72071202345395402
40
0.72071202345395402
40
0.77545689377378102
40
0.77545689377378102
40
0.77545689377378102
40
0.77545689377378102
10
-367.05115499825251
20
-248.50578047516126
30
0
10
-366.35072679407045
20
-248.50621024913522
30
0
10
-365.63910419744104
20
-248.48195351837691
30
0
10
-363.83209277639298
20
-248.37206485936281
30
0
10
-363.00062197544173
20
-248.27355325011294
30
0
10
-362.13162780478501
20
-248.20343919696882
30
0
10
-361.98182216461976
20
-248.19283409973434
30
0
10
-361.69451333233093
20
-248.17682576733429
30
0
10
-361.56434031846601
20
-248.17116764145939
30
0
10
-361.33752453785911
20
-248.16392109201192
30
0
10
-361.24234485705426
20
-248.16166949084771
30
0
10
-361.02861266346997
20
-248.15817308263604
30
0
10
-360.91021227646388
20
-248.15730739531307
30
0
10
-360.79187961270941
20
-248.15730925356266
30
0
0
LINE
5
110
100
AcDbEntity
8
0
100
AcDbLine
10
-367.05115499825251
20
-248.50578047516126
30
0
11
-396.30017232358335
21
-248.50578047515486
31
2.0194839173657902e-27
0
ARC
5
111
100
AcDbEntity
8
0
100
AcDbCircle
10
-396.30017232358426
20
-252.50578047515486
30
8.0714791545109463e-42
40
3.9999999999999858
210
1.514612938023181e-28
220
-5.0487097934148226e-28
230
1
100
AcDbArc
50
89.999999999986969
51
180
0
LINE
5
112
100
AcDbEntity
8
0
100
AcDbLine
10
-400.30017232358426
20
-252.50578047515467
30
6.0584517520974469e-28
11
-400.30017232358597
21
-284.50578005720598
31
-3.944304526105059e-30
0
ARC
5
113
100
AcDbEntity
8
0
100
AcDbCircle
10
-396.30017232358597
20
-284.50578005720627
30
-6.4459729358941585e-43
40
3.9999999999999858
210
-9.8607613152610711e-31
220
1.1406199310624616e-35
230
1
100
AcDbArc
50
180
51
270.00000647221481
0
LINE
5
114
100
AcDbEntity
8
0
100
AcDbLine
10
-396.30017187174013
20
-288.50578005720621
30
-3.6785268790112137e-42
11
-378.99525425108027
21
-288.50577810241765
31
-2.0194839173657902e-27
0
ARC
5
115
100
AcDbEntity
8
0
100
AcDbCircle
10
-378.9952533473886
20
-296.50577810240793
30
0
40
8.000000000000016
210
1.5745362018168553e-28
220
-2.641643559984493e-29
230
1
100
AcDbArc
50
62.041075857274798
51
90.000006472214835
0
ARC
5
116
100
AcDbEntity
8
0
100
AcDbCircle
10
-364.83633218270381
20
-269.83060328663123
30
-2.6512566945025539e-41
40
22.200000000000099
210
2.9089727637730068e-29
220
-3.6038164356100229e-29
230
1
100
AcDbArc
50
242.0410758572751
51
263.07933770790714
0
ARC
5
117
100
AcDbEntity
8
0
100
AcDbCircle
10
-368.11379194383471
20
-296.83242280891864
30
0
40
5.0000000000000044
210
1.1250700218095029e-28
220
9.3225398532404836e-30
230
1
100
AcDbArc
50
68.171762533200209
51
83.0793377079072
0
LINE
5
118
100
AcDbEntity
8
0
100
AcDbLine
10
-366.25466503190756
20
-292.19090935689155
30
-2.5243548967072216e-28
11
-361.49517331311995
21
-294.09729166795171
31
1.8772384494891606e-28
0
CIRCLE
5
119
100
AcDbEntity
8
0
100
AcDbCircle
10
-357.88026043990112
20
-254.83558049224396
30
-1.83850358519416e-41
40
2.1000000000000001
210
5.0487097934144756e-29
220
-5.8829515256994597e-42
230
1
0
CIRCLE
5
120
100
AcDbEntity
8
0
100
AcDbCircle
10
-368.8751723235851
20
-281.93077873746904
30
0
40
2.1000000000000001
210
5.0487097934144756e-29
220
-5.8829515256994597e-42
230
1
0
CIRCLE
5
121
100
AcDbEntity
8
0
100
AcDbCircle
10
-371.17347004935112
20
-267.95577821592309
30
0
40
2.1000000000000001
210
5.0487097934144756e-29
220
-5.8829515256994597e-42
230
1
0
CIRCLE
5
122
100
AcDbEntity
8
0
100
AcDbCircle
10
-353.55017230911159
20
-269.04368921593266
30
0
40
2.1000000000000001
210
5.0487097934144756e-29
220
-5.8829515256994597e-42
230
1
0
LWPOLYLINE
5
123
100
AcDbEntity
8
0
100
AcDbPolyline
90
8
70
1
43
0.0
10
-388.50018453062495
20
-282.50578010804082
10
-391.50018453062359
20
-282.50578010804054
42
-0.41421356237310025
10
-393.50018453062341
20
-280.50578010804026
10
-393.50018453062046
20
-256.50578010804031
42
-0.41421356237309503
10
-391.50018453062034
20
-254.50578010804051
10
-388.50018453062177
20
-254.50578010804082
42
-0.41421356237308982
10
-386.50018453062194
20
-256.50578010804111
10
-386.50018453062472
20
-280.50578010804117
42
-0.41421356237307944
0
CIRCLE
5
124
100
AcDbEntity
8
0
100
AcDbCircle
10
-353.55017230911255
20
-284.4557782159286
30
0
40
2.7000000000000002
210
1.0097419586828951e-28
220
-1.18085196802864e-41
230
1
0
CIRCLE
5
125
100
AcDbEntity
8
0
100
AcDbCircle
10
-382.50017881491351
20
-260.50578033395465
30
0
40
1.7000000000000002
210
1.0097419586828951e-28
220
-1.18085196802864e-41
230
1
0
CIRCLE
5
126
100
AcDbEntity
8
0
100
AcDbCircle
10
-397.50017881491539
20
-276.50578033395288
30
0
40
1.7000000000000002
210
1.0097419586828951e-28
220
-1.18085196802864e-41
230
1
0
CIRCLE
5
127
100
AcDbEntity
8
0
100
AcDbCircle
10
-382.50017881491539
20
-276.50578033395465
30
0
40
1.7000000000000002
210
1.0097419586828951e-28
220
-1.18085196802864e-41
230
1
0
CIRCLE
5
128
100
AcDbEntity
8
0
100
AcDbCircle
10
-397.50017881491351
20
-260.50578033395288
30
0
40
1.7000000000000002
210
1.0097419586828951e-28
220
-1.18085196802864e-41
230
1
0
ENDSEC
0
SECTION
2
OBJECTS
0
DICTIONARY
5
C
100
AcDbDictionary
3
ACAD_GROUP
350
D
3
ACAD_MLINESTYLE
350
17
0
DICTIONARY
5
D
100
AcDbDictionary
0
DICTIONARY
5
1A
330
C
100
AcDbDictionary
0
DICTIONARY
5
17
100
AcDbDictionary
0
ENDSEC
0
EOF
