0
SECTION
2
HEADER
9
$INSUNITS
70
4
9
$ACADVER
1
AC1014
9
$HANDSEED
5
FFFF
0
ENDSEC
0
SECTION
2
TABLES
0
TABLE
2
VPORT
5
8
100
AcDbSymbolTable
0
ENDTAB
0
TABLE
2
LTYPE
5
5
100
AcDbSymbolTable
0
LTYPE
5
14
100
AcDbSymbolTableRecord
100
AcDbLinetypeTableRecord
2
BYBLOCK
70
0
0
LTYPE
5
15
100
AcDbSymbolTableRecord
100
AcDbLinetypeTableRecord
2
BYLAYER
70
0
0
ENDTAB
0
TABLE
2
LAYER
5
2
100
AcDbSymbolTable
70
2
0
LAYER
5
50
100
AcDbSymbolTableRecord
100
AcDbLayerTableRecord
2
0
70
0
6
CONTINUOUS
0
ENDTAB
0
TABLE
2
STYLE
5
3
100
AcDbSymbolTable
70
1
0
STYLE
5
11
100
AcDbSymbolTableRecord
100
AcDbTextStyleTableRecord
2
STANDARD
70
0
0
ENDTAB
0
TABLE
2
VIEW
5
6
100
AcDbSymbolTable
70
0
0
ENDTAB
0
TABLE
2
UCS
5
7
100
AcDbSymbolTable
70
0
0
ENDTAB
0
TABLE
2
APPID
5
9
100
AcDbSymbolTable
70
2
0
APPID
5
12
100
AcDbSymbolTableRecord
100
AcDbRegAppTableRecord
2
ACAD
70
0
0
ENDTAB
0
TABLE
2
DIMSTYLE
5
A
100
AcDbSymbolTable
70
1
0
ENDTAB
0
TABLE
2
BLOCK_RECORD
5
1
100
AcDbSymbolTable
70
1
0
BLOCK_RECORD
5
1F
100
AcDbSymbolTableRecord
100
AcDbBlockTableRecord
2
*MODEL_SPACE
0
BLOCK_RECORD
5
1B
100
AcDbSymbolTableRecord
100
AcDbBlockTableRecord
2
*PAPER_SPACE
0
ENDTAB
0
ENDSEC
0
SECTION
2
BLOCKS
0
BLOCK
5
20
100
AcDbEntity
100
AcDbBlockBegin
2
*MODEL_SPACE
0
ENDBLK
5
21
100
AcDbEntity
100
AcDbBlockEnd
0
BLOCK
5
1C
100
AcDbEntity
100
AcDbBlockBegin
2
*PAPER_SPACE
0
ENDBLK
5
1D
100
AcDbEntity
100
AcDbBlockEnd
0
ENDSEC
0
SECTION
2
ENTITIES
0
LWPOLYLINE
5
100
100
AcDbEntity
8
0
100
AcDbPolyline
90
27
70
1
43
0.0
10
-166.42969010890309
20
-347.832666127979
42
0.31108001332852786
10
-167.07326999997173
20
-348.76699193087074
10
-167.07326999997164
20
-363.84317266146809
42
-0.41421356237310542
10
-169.07326999997173
20
-365.84317266146809
10
-174.07326999997173
20
-365.84317266146797
42
-0.41421356237309503
10
-176.07326999997173
20
-363.84317266146803
10
-176.07326999997139
20
-351.18200991150695
42
0.60738751383849243
10
-177.64821658213452
20
-350.36381896334206
42
-0.15434306573310372
10
-189.14714822539946
20
-354.00000000004616
10
-215.50843350134258
20
-354.00000000004604
42
0.19891236737966661
10
-222.57950131320831
20
-356.92893218818085
10
-240.18567878260771
20
-374.53510965757863
42
-0.1989123673796632
10
-243.7212126885405
20
-375.99957575164592
10
-253.17326999997252
20
-375.99957575164592
42
0.41421356237312279
10
-256.17326999997249
20
-378.99957575164598
10
-256.17326999997249
20
-393.00000000005741
42
0.41421356237310125
10
-251.17326999997249
20
-398.00000000005741
10
-165.47326999997213
20
-398.00000000005747
42
0.41421356237310125
10
-160.47326999997216
20
-393.00000000005747
10
-160.4732699999721
20
-381.00000000005753
42
-0.41421356237309503
10
-159.4732699999721
20
-380.00000000005747
10
-142.99999999997209
20
-380.00000000005753
42
0.41421356237309337
10
-139.99999999997209
20
-377.00000000005741
10
-139.99999999997218
20
-349.00000000005775
42
0.41421356237310025
10
-142.99999999997215
20
-346.00000000005775
10
-161.87320917192366
20
-346.00000000005775
42
0.12888509547656377
10
-163.34484110758535
20
-346.38575069175909
42
-0.037087073094102974
0
CIRCLE
5
101
100
AcDbEntity
8
0
100
AcDbCircle
10
-214.69588383038956
20
-359.50000000004593
30
0
40
1.7500000000000102
210
-2.5243548967072484e-29
220
1.0097419586828949e-28
230
1
0
CIRCLE
5
102
100
AcDbEntity
8
0
100
AcDbCircle
10
-183.69588383038999
20
-390.50000000004604
30
0
40
1.7500000000000102
210
-2.5243548967072484e-29
220
1.0097419586828949e-28
230
1
0
CIRCLE
5
103
100
AcDbEntity
8
0
100
AcDbCircle
10
-183.69588383038985
20
-359.50000000004616
30
0
40
1.7500000000000102
210
-2.5243548967072484e-29
220
1.0097419586828949e-28
230
1
0
CIRCLE
5
104
100
AcDbEntity
8
0
100
AcDbCircle
10
-150.0000429999721
20
-371.00000000005764
30
0
40
2.7000000000000002
210
1.6796567022878488e-44
220
5.0487097934144756e-29
230
1
0
CIRCLE
5
105
100
AcDbEntity
8
0
100
AcDbCircle
10
-230.4228838303915
20
-385.99957575164575
30
0
40
2.7000000000000304
210
-5.3559127165585495e-44
220
5.0487097934144756e-29
230
1
0
CIRCLE
5
106
100
AcDbEntity
8
0
100
AcDbCircle
10
-246.42288383039153
20
-385.99957575164586
30
0
40
2.7000000000000002
210
-5.3559127165585475e-44
220
5.0487097934144756e-29
230
1
0
CIRCLE
5
107
100
AcDbEntity
8
0
100
AcDbCircle
10
-206.00000262601057
20
-390.47698855408987
30
0
40
2.1169999999999995
210
-2.5243548967072383e-29
220
-6.1266268717982912e-44
230
1
0
CIRCLE
5
108
100
AcDbEntity
8
0
100
AcDbCircle
10
-169.00000300152189
20
-390.50000000005838
30
0
40
2.1169999999999995
210
-2.5243548967072383e-29
220
-6.1266268717982912e-44
230
1
0
LWPOLYLINE
5
109
100
AcDbEntity
8
0
100
AcDbPolyline
90
4
70
1
43
0.0
10
-202.13774608993359
20
-385.88536854524978
42
0.14354409912049726
10
-205.22782131727482
20
-384.52688469932491
42
-0.13182860099830776
10
-206.18612096124295
20
-384.13162553192393
42
-8.3230290925430825
10
-201.19863111812913
20
-386.32426612644247
42
-0.13182860099840388
0
CIRCLE
5
110
100
AcDbEntity
8
0
100
AcDbCircle
10
-150.00004299997215
20
-355.0000000000577
30
0
40
2.7000000000000002
210
1.679656702287799e-44
220
5.0487097934144756e-29
230
1
0
ENDSEC
0
SECTION
2
OBJECTS
0
DICTIONARY
5
C
100
AcDbDictionary
3
ACAD_GROUP
350
D
3
ACAD_MLINESTYLE
350
17
0
DICTIONARY
5
D
100
AcDbDictionary
0
DICTIONARY
5
1A
330
C
100
AcDbDictionary
0
DICTIONARY
5
17
100
AcDbDictionary
0
ENDSEC
0
EOF
