0
SECTION
2
HEADER
9
$INSUNITS
70
4
9
$ACADVER
1
AC1014
9
$HANDSEED
5
FFFF
0
ENDSEC
0
SECTION
2
TABLES
0
TABLE
2
VPORT
5
8
100
AcDbSymbolTable
0
ENDTAB
0
TABLE
2
LTYPE
5
5
100
AcDbSymbolTable
0
LTYPE
5
14
100
AcDbSymbolTableRecord
100
AcDbLinetypeTableRecord
2
BYBLOCK
70
0
0
LTYPE
5
15
100
AcDbSymbolTableRecord
100
AcDbLinetypeTableRecord
2
BYLAYER
70
0
0
ENDTAB
0
TABLE
2
LAYER
5
2
100
AcDbSymbolTable
70
2
0
LAYER
5
50
100
AcDbSymbolTableRecord
100
AcDbLayerTableRecord
2
0
70
0
6
CONTINUOUS
0
ENDTAB
0
TABLE
2
STYLE
5
3
100
AcDbSymbolTable
70
1
0
STYLE
5
11
100
AcDbSymbolTableRecord
100
AcDbTextStyleTableRecord
2
STANDARD
70
0
0
ENDTAB
0
TABLE
2
VIEW
5
6
100
AcDbSymbolTable
70
0
0
ENDTAB
0
TABLE
2
UCS
5
7
100
AcDbSymbolTable
70
0
0
ENDTAB
0
TABLE
2
APPID
5
9
100
AcDbSymbolTable
70
2
0
APPID
5
12
100
AcDbSymbolTableRecord
100
AcDbRegAppTableRecord
2
ACAD
70
0
0
ENDTAB
0
TABLE
2
DIMSTYLE
5
A
100
AcDbSymbolTable
70
1
0
ENDTAB
0
TABLE
2
BLOCK_RECORD
5
1
100
AcDbSymbolTable
70
1
0
BLOCK_RECORD
5
1F
100
AcDbSymbolTableRecord
100
AcDbBlockTableRecord
2
*MODEL_SPACE
0
BLOCK_RECORD
5
1B
100
AcDbSymbolTableRecord
100
AcDbBlockTableRecord
2
*PAPER_SPACE
0
ENDTAB
0
ENDSEC
0
SECTION
2
BLOCKS
0
BLOCK
5
20
100
AcDbEntity
100
AcDbBlockBegin
2
*MODEL_SPACE
0
ENDBLK
5
21
100
AcDbEntity
100
AcDbBlockEnd
0
BLOCK
5
1C
100
AcDbEntity
100
AcDbBlockBegin
2
*PAPER_SPACE
0
ENDBLK
5
1D
100
AcDbEntity
100
AcDbBlockEnd
0
ENDSEC
0
SECTION
2
ENTITIES
0
LWPOLYLINE
5
100
100
AcDbEntity
8
0
100
AcDbPolyline
90
27
70
1
43
0.0
10
167.07326999999989
20
-348.48452114852967
42
0.30236776998079651
10
166.45926461985866
20
-347.56202011685536
42
-0.029141222553886237
10
164.05254944342931
20
-346.38590342942592
42
0.12891147114668111
10
162.58064621301483
20
-346.00000000000165
10
142.99999999999923
20
-346.00000000000148
42
0.41421356237309159
10
139.99999999999929
20
-349.00000000000153
10
139.9999999999992
20
-377.00000000000125
42
0.41421356237308982
10
142.99999999999923
20
-380.00000000000114
10
159.47326999999453
20
-380.00000000000119
42
-0.41421356237309503
10
160.47326999999453
20
-381.00000000000125
10
160.4732699999945
20
-393.00000000000153
42
0.41421356237310336
10
165.4732699999945
20
-398.00000000000153
10
251.17326999999938
20
-398.00000000000148
42
0.41421356237302637
10
256.17326999999841
20
-393.00000000000131
10
256.17326999999841
20
-378.99957575159016
42
0.41421356237311241
10
253.17326999999841
20
-375.99957575159016
10
243.72121268856745
20
-375.99957575158999
42
-0.19891236737966583
10
240.18567878263462
20
-374.53510965752258
10
222.57950131323551
20
-356.92893218812458
42
0.1989123673796605
10
215.50843350137052
20
-353.99999999998965
10
189.14714822542669
20
-353.99999999998983
42
-0.15434306573308657
10
177.64821658216289
20
-350.36381896328646
42
0.60738751383848799
10
176.07326999999958
20
-351.1820099114513
10
176.07326999999998
20
-363.8431726614117
42
-0.41421356237310025
10
174.07326999999998
20
-365.84317266141176
10
169.07326999999998
20
-365.84317266141181
42
-0.41421356237308982
10
167.07326999999995
20
-363.84317266141181
0
CIRCLE
5
101
100
AcDbEntity
8
0
100
AcDbCircle
10
167.07326999999978
20
-373.00000000000171
30
0
40
1.2645
210
0
220
-0
230
1
0
CIRCLE
5
102
100
AcDbEntity
8
0
100
AcDbCircle
10
150.00004299999932
20
-371.00000000000136
30
0
40
2.7000000000000002
210
0
220
-0
230
1
0
CIRCLE
5
103
100
AcDbEntity
8
0
100
AcDbCircle
10
169.00000300155
20
-390.50000000000125
30
0
40
2.7000000000000002
210
0
220
-0
230
1
0
CIRCLE
5
104
100
AcDbEntity
8
0
100
AcDbCircle
10
230.42288383041841
20
-385.99957575158982
30
0
40
2.7000000000000304
210
0
220
-0
230
1
0
LWPOLYLINE
5
105
100
AcDbEntity
8
0
100
AcDbPolyline
90
4
70
1
43
0.0
10
206.18612089150963
20
-384.13162558526915
42
8.3230300753839686
10
201.19863166517342
20
-386.32426602964387
42
0.13182858521851759
10
202.13774652082049
20
-385.88536848296036
42
-0.14354408173501657
10
205.22782136757229
20
-384.52688472938036
42
0.13182858521852164
0
LWPOLYLINE
5
106
100
AcDbEntity
8
0
100
AcDbPolyline
90
8
70
1
43
0.0
10
221.40122194594051
20
-364.08611984194079
10
233.90046429321649
20
-376.58536218921682
42
-0.6681786379193172
10
232.48625073084344
20
-379.99957575158999
10
217.86302523494143
20
-379.99957575158993
42
-0.46168728486308919
10
215.88835619761963
20
-377.68227117702077
42
0.14568346437502971
10
214.63767958306295
20
-368.11638493735643
42
-0.47298999114347612
10
216.02226897487245
20
-365.35155555800719
42
0.12559564090280537
10
218.66422724528033
20
-364.00025005323255
42
-0.39595835313997041
0
CIRCLE
5
107
100
AcDbEntity
8
0
100
AcDbCircle
10
183.69588383041724
20
-390.49999999998977
30
0
40
1.7500000000000102
210
-2.6151917560000718e-47
220
-2.4651903288156619e-32
230
1
0
CIRCLE
5
108
100
AcDbEntity
8
0
100
AcDbCircle
10
214.69588383041756
20
-359.4999999999896
30
0
40
1.7500000000000102
210
-2.6151917560000718e-47
220
-2.4651903288156619e-32
230
1
0
CIRCLE
5
109
100
AcDbEntity
8
0
100
AcDbCircle
10
183.69588383041707
20
-359.49999999998988
30
0
40
1.7500000000000102
210
-2.6151917560000718e-47
220
-2.4651903288156619e-32
230
1
0
CIRCLE
5
110
100
AcDbEntity
8
0
100
AcDbCircle
10
246.42288383041844
20
-385.99957575158999
30
0
40
2.7000000000000002
210
0
220
-0
230
1
0
CIRCLE
5
111
100
AcDbEntity
8
0
100
AcDbCircle
10
206.00000300154767
20
-390.47698855403337
30
0
40
2.7000000000000002
210
0
220
-0
230
1
0
CIRCLE
5
112
100
AcDbEntity
8
0
100
AcDbCircle
10
150.00004299999938
20
-355.00000000000136
30
0
40
2.7000000000000002
210
0
220
-0
230
1
0
ENDSEC
0
SECTION
2
OBJECTS
0
DICTIONARY
5
C
100
AcDbDictionary
3
ACAD_GROUP
350
D
3
ACAD_MLINESTYLE
350
17
0
DICTIONARY
5
D
100
AcDbDictionary
0
DICTIONARY
5
1A
330
C
100
AcDbDictionary
0
DICTIONARY
5
17
100
AcDbDictionary
0
ENDSEC
0
EOF
