0
SECTION
2
HEADER
9
$INSUNITS
70
4
9
$ACADVER
1
AC1014
9
$HANDSEED
5
FFFF
0
ENDSEC
0
SECTION
2
TABLES
0
TABLE
2
VPORT
5
8
100
AcDbSymbolTable
0
ENDTAB
0
TABLE
2
LTYPE
5
5
100
AcDbSymbolTable
0
LTYPE
5
14
100
AcDbSymbolTableRecord
100
AcDbLinetypeTableRecord
2
BYBLOCK
70
0
0
LTYPE
5
15
100
AcDbSymbolTableRecord
100
AcDbLinetypeTableRecord
2
BYLAYER
70
0
0
ENDTAB
0
TABLE
2
LAYER
5
2
100
AcDbSymbolTable
70
2
0
LAYER
5
50
100
AcDbSymbolTableRecord
100
AcDbLayerTableRecord
2
0
70
0
6
CONTINUOUS
0
ENDTAB
0
TABLE
2
STYLE
5
3
100
AcDbSymbolTable
70
1
0
STYLE
5
11
100
AcDbSymbolTableRecord
100
AcDbTextStyleTableRecord
2
STANDARD
70
0
0
ENDTAB
0
TABLE
2
VIEW
5
6
100
AcDbSymbolTable
70
0
0
ENDTAB
0
TABLE
2
UCS
5
7
100
AcDbSymbolTable
70
0
0
ENDTAB
0
TABLE
2
APPID
5
9
100
AcDbSymbolTable
70
2
0
APPID
5
12
100
AcDbSymbolTableRecord
100
AcDbRegAppTableRecord
2
ACAD
70
0
0
ENDTAB
0
TABLE
2
DIMSTYLE
5
A
100
AcDbSymbolTable
70
1
0
ENDTAB
0
TABLE
2
BLOCK_RECORD
5
1
100
AcDbSymbolTable
70
1
0
BLOCK_RECORD
5
1F
100
AcDbSymbolTableRecord
100
AcDbBlockTableRecord
2
*MODEL_SPACE
0
BLOCK_RECORD
5
1B
100
AcDbSymbolTableRecord
100
AcDbBlockTableRecord
2
*PAPER_SPACE
0
ENDTAB
0
ENDSEC
0
SECTION
2
BLOCKS
0
BLOCK
5
20
100
AcDbEntity
100
AcDbBlockBegin
2
*MODEL_SPACE
0
ENDBLK
5
21
100
AcDbEntity
100
AcDbBlockEnd
0
BLOCK
5
1C
100
AcDbEntity
100
AcDbBlockBegin
2
*PAPER_SPACE
0
ENDBLK
5
1D
100
AcDbEntity
100
AcDbBlockEnd
0
ENDSEC
0
SECTION
2
ENTITIES
0
LWPOLYLINE
5
100
100
AcDbEntity
8
0
100
AcDbPolyline
90
22
70
1
43
0.0
10
-379.52673000002738
20
-381.00000000005787
10
-379.52673000002738
20
-393.00000000005781
42
0.41421356237309503
10
-374.52673000002738
20
-398.00000000005781
10
-288.82673000002706
20
-398.00000000005753
42
0.41421356237309709
10
-283.82673000002706
20
-393.00000000005753
10
-283.82673000002706
20
-378.99957575164615
42
0.41421356237309503
10
-286.82673000002706
20
-375.99957575164615
10
-296.2787873114591
20
-375.99957575164615
42
-0.19891236737966078
10
-299.81432121739192
20
-374.5351096575788
10
-317.42049868679106
20
-356.92893218818091
42
0.19891236737967041
10
-324.49156649865705
20
-354.00000000004627
10
-350.85285177460014
20
-354.00000000004644
42
-0.16112973134987796
10
-362.78113651970557
20
-350.05353615379425
42
0.16112973134987349
10
-364.92822777382452
20
-349.34317266146883
10
-365.37264738567512
20
-349.34317266146883
42
-0.12888509547660321
10
-376.65515889241419
20
-346.38575069175948
42
0.12888509547662674
10
-378.12679082807597
20
-346.00000000005809
10
-397.00000000002746
20
-346.00000000005815
42
0.41421356237309503
10
-400.0000000000274
20
-349.00000000005809
10
-400.00000000002751
20
-377.00000000005781
42
0.41421356237311585
10
-397.0000000000274
20
-380.00000000005792
10
-380.52673000002744
20
-380.00000000005775
42
-0.41421356237315748
0
CIRCLE
5
101
100
AcDbEntity
8
0
100
AcDbCircle
10
-325.30411616961004
20
-359.50000000004616
30
0
40
1.7500000000000102
210
1.0711825432035766e-43
220
-1.0097419586828951e-28
230
1
0
CIRCLE
5
102
100
AcDbEntity
8
0
100
AcDbCircle
10
-356.30411616960953
20
-390.50000000004627
30
0
40
1.7500000000000102
210
1.0711825432035766e-43
220
-1.0097419586828951e-28
230
1
0
CIRCLE
5
103
100
AcDbEntity
8
0
100
AcDbCircle
10
-356.30411616960976
20
-359.50000000004644
30
0
40
1.7500000000000102
210
1.0711825432035766e-43
220
-1.0097419586828951e-28
230
1
0
CIRCLE
5
104
100
AcDbEntity
8
0
100
AcDbCircle
10
-389.99995700002751
20
-371.00000000005809
30
0
40
2.7000000000000002
210
2.478296426972856e-43
220
-1.0097419586828951e-28
230
1
0
CIRCLE
5
105
100
AcDbEntity
8
0
100
AcDbCircle
10
-309.57711616960808
20
-385.99957575164592
30
0
40
2.7000000000000304
210
1.0711825432035762e-43
220
-1.0097419586828951e-28
230
1
0
CIRCLE
5
106
100
AcDbEntity
8
0
100
AcDbCircle
10
-293.57711616960808
20
-385.99957575164603
30
0
40
2.7000000000000002
210
1.0711825432035766e-43
220
-1.0097419586828951e-28
230
1
0
CIRCLE
5
107
100
AcDbEntity
8
0
100
AcDbCircle
10
-333.999997373989
20
-390.47698855409016
30
0
40
2.1169999999999995
210
-1.541428311020147e-44
220
-5.0487097934144767e-29
230
1
0
CIRCLE
5
108
100
AcDbEntity
8
0
100
AcDbCircle
10
-370.99999699847774
20
-390.50000000005872
30
0
40
2.1169999999999995
210
-1.541428311020147e-44
220
-5.0487097934144767e-29
230
1
0
LWPOLYLINE
5
109
100
AcDbEntity
8
0
100
AcDbPolyline
90
12
70
1
43
0.0
10
-358.57834350396206
20
-381.7688023225017
42
0.099376928331033287
10
-361.77172223202462
20
-383.32286918063693
42
-0.16420655341144655
10
-362.98371271623557
20
-383.73193264319048
10
-371.69121596020932
20
-383.73193264319042
42
-0.41421356237309503
10
-374.69121596020926
20
-380.73193264319048
10
-374.69121596020926
20
-360.80167713733624
42
-0.41421356237309503
10
-371.69121596020932
20
-357.80167713733624
10
-365.41655212987052
20
-357.80167713733618
42
-0.40455343770088725
10
-363.41764724304289
20
-359.73550120955986
42
0.33534291241534947
10
-358.01992683422361
20
-366.40751611769531
42
-0.44862117748439062
10
-356.62992492085903
20
-369.05214410352124
42
0.15574510373735076
10
-357.14892434337065
20
-379.32208955949557
42
-0.41529924196138918
0
LWPOLYLINE
5
110
100
AcDbEntity
8
0
100
AcDbPolyline
90
4
70
1
43
0.0
10
-334.77217868272481
20
-384.52688469932519
42
0.14354409912049354
10
-337.86225391006604
20
-385.88536854524995
42
-0.13182860099837757
10
-338.80136888187042
20
-386.32426612644286
42
-8.3230290925429884
10
-333.81387903875662
20
-384.13162553192416
42
-0.13182860099838839
0
CIRCLE
5
111
100
AcDbEntity
8
0
100
AcDbCircle
10
-389.99995700002751
20
-355.00000000005804
30
0
40
2.7000000000000002
210
2.4782964269728461e-43
220
-1.0097419586828951e-28
230
1
0
ENDSEC
0
SECTION
2
OBJECTS
0
DICTIONARY
5
C
100
AcDbDictionary
3
ACAD_GROUP
350
D
3
ACAD_MLINESTYLE
350
17
0
DICTIONARY
5
D
100
AcDbDictionary
0
DICTIONARY
5
1A
330
C
100
AcDbDictionary
0
DICTIONARY
5
17
100
AcDbDictionary
0
ENDSEC
0
EOF
