0
SECTION
2
HEADER
9
$INSUNITS
70
4
9
$ACADVER
1
AC1014
9
$HANDSEED
5
FFFF
0
ENDSEC
0
SECTION
2
TABLES
0
TABLE
2
VPORT
5
8
100
AcDbSymbolTable
0
ENDTAB
0
TABLE
2
LTYPE
5
5
100
AcDbSymbolTable
0
LTYPE
5
14
100
AcDbSymbolTableRecord
100
AcDbLinetypeTableRecord
2
BYBLOCK
70
0
0
LTYPE
5
15
100
AcDbSymbolTableRecord
100
AcDbLinetypeTableRecord
2
BYLAYER
70
0
0
ENDTAB
0
TABLE
2
LAYER
5
2
100
AcDbSymbolTable
70
2
0
LAYER
5
50
100
AcDbSymbolTableRecord
100
AcDbLayerTableRecord
2
0
70
0
6
CONTINUOUS
0
ENDTAB
0
TABLE
2
STYLE
5
3
100
AcDbSymbolTable
70
1
0
STYLE
5
11
100
AcDbSymbolTableRecord
100
AcDbTextStyleTableRecord
2
STANDARD
70
0
0
ENDTAB
0
TABLE
2
VIEW
5
6
100
AcDbSymbolTable
70
0
0
ENDTAB
0
TABLE
2
UCS
5
7
100
AcDbSymbolTable
70
0
0
ENDTAB
0
TABLE
2
APPID
5
9
100
AcDbSymbolTable
70
2
0
APPID
5
12
100
AcDbSymbolTableRecord
100
AcDbRegAppTableRecord
2
ACAD
70
0
0
ENDTAB
0
TABLE
2
DIMSTYLE
5
A
100
AcDbSymbolTable
70
1
0
ENDTAB
0
TABLE
2
BLOCK_RECORD
5
1
100
AcDbSymbolTable
70
1
0
BLOCK_RECORD
5
1F
100
AcDbSymbolTableRecord
100
AcDbBlockTableRecord
2
*MODEL_SPACE
0
BLOCK_RECORD
5
1B
100
AcDbSymbolTableRecord
100
AcDbBlockTableRecord
2
*PAPER_SPACE
0
ENDTAB
0
ENDSEC
0
SECTION
2
BLOCKS
0
BLOCK
5
20
100
AcDbEntity
100
AcDbBlockBegin
2
*MODEL_SPACE
0
ENDBLK
5
21
100
AcDbEntity
100
AcDbBlockEnd
0
BLOCK
5
1C
100
AcDbEntity
100
AcDbBlockBegin
2
*PAPER_SPACE
0
ENDBLK
5
1D
100
AcDbEntity
100
AcDbBlockEnd
0
ENDSEC
0
SECTION
2
ENTITIES
0
LWPOLYLINE
5
100
100
AcDbEntity
8
0
100
AcDbPolyline
90
21
70
1
43
0.0
10
350.85286432828877
20
-354.00000934472121
10
324.491579052345
20
-354.00000934472098
42
0.19891236737965401
10
317.42051124047964
20
-356.92894153285533
10
299.81433377108084
20
-374.53511900225385
42
-0.19891236737966134
10
296.27879986514802
20
-375.9995850963212
10
286.826742553717
20
-375.9995850963212
42
0.41421356237309503
10
283.826742553717
20
-378.99958509632131
10
283.826742553717
20
-393.00000934473246
42
0.41421356237304302
10
288.82674255371603
20
-398.00000934473252
10
374.52674255372096
20
-398.0000093447328
42
0.41421356237309503
10
379.52674255372096
20
-393.0000093447328
10
379.52674255372085
20
-381.00000934473252
42
-0.41421356237311585
10
380.52674255372091
20
-380.00000934473258
10
397.00001255371615
20
-380.00000934473258
42
0.41421356237308815
10
400.00001255371615
20
-377.00000934473258
10
400.0000125537162
20
-349.00000934473297
42
0.41421356237309503
10
397.00001255371626
20
-346.00000934473292
10
377.41936634070072
20
-346.00000934473292
42
0.1289114711466848
10
375.94746311028615
20
-346.38591277415736
42
-0.12637672572591793
10
364.89232577332297
20
-349.34336115715712
42
0.15857189234806879
10
362.7811490733942
20
-350.05354549846908
42
-0.16112973134987613
0
CIRCLE
5
101
100
AcDbEntity
8
0
100
AcDbCircle
10
389.99996955371608
20
-355.00000934473269
30
0
40
2.7000000000000002
210
7.5631604827053415e-48
220
3.0814879110195774e-33
230
1
0
CIRCLE
5
102
100
AcDbEntity
8
0
100
AcDbCircle
10
334.0000095521691
20
-390.47699789876594
30
0
40
2.7000000000000002
210
1.216306126114948e-48
220
3.0814879110195774e-33
230
1
0
CIRCLE
5
103
100
AcDbEntity
8
0
100
AcDbCircle
10
293.57712872329699
20
-385.9995850963212
30
0
40
2.7000000000000002
210
3.2689896950002259e-48
220
3.0814879110195774e-33
230
1
0
CIRCLE
5
104
100
AcDbEntity
8
0
100
AcDbCircle
10
356.30412872329839
20
-359.50000934472115
30
0
40
1.7500000000000102
210
3.2689896950002283e-48
220
3.0814879110195774e-33
230
1
0
CIRCLE
5
105
100
AcDbEntity
8
0
100
AcDbCircle
10
325.30412872329896
20
-359.50000934472092
30
0
40
1.7500000000000102
210
3.2689896950002283e-48
220
3.0814879110195774e-33
230
1
0
CIRCLE
5
106
100
AcDbEntity
8
0
100
AcDbCircle
10
356.30412872329822
20
-390.50000934472104
30
0
40
1.7500000000000102
210
3.2689896950002283e-48
220
3.0814879110195774e-33
230
1
0
LWPOLYLINE
5
107
100
AcDbEntity
8
0
100
AcDbPolyline
90
8
70
1
43
0.0
10
306.09954826049898
20
-376.58537153394809
10
318.59879060777496
20
-364.086129186672
42
-0.39595835313994615
10
321.33578530843516
20
-364.00025939796376
42
0.12559564090279779
10
323.97774357884293
20
-365.35156490273857
42
-0.47298999114348689
10
325.36233297065246
20
-368.11639428208764
42
0.1456834643750303
10
324.11165635609586
20
-377.68228052175203
42
-0.46168728486308835
10
322.136987318774
20
-379.9995850963212
10
307.51376182287197
20
-379.99958509632108
42
-0.66817863791931253
0
LWPOLYLINE
5
108
100
AcDbEntity
8
0
100
AcDbPolyline
90
12
70
1
43
0.0
10
361.77173478571331
20
-383.32287852531169
42
0.099376928331034675
10
358.57835605765075
20
-381.76881166717641
42
-0.41529924196140411
10
357.14893689705946
20
-379.32209890417028
42
0.15574510373734948
10
356.62993747454766
20
-369.05215344819601
42
-0.44862117748436503
10
358.01993938791213
20
-366.40752546236996
42
0.3353429124153493
10
363.41765979673147
20
-359.73551055423462
42
-0.40455343770086655
10
365.41656468355905
20
-357.80168648201106
10
371.69122851389784
20
-357.80168648201106
42
-0.41421356237308815
10
374.69122851389778
20
-360.80168648201101
10
374.69122851389778
20
-380.73194198786507
42
-0.41421356237310197
10
371.69122851389778
20
-383.73194198786513
10
362.98372526992421
20
-383.73194198786518
42
-0.1642065534114282
0
LWPOLYLINE
5
109
100
AcDbEntity
8
0
100
AcDbPolyline
90
4
70
1
43
0.0
10
338.80138088854204
20
-386.32427537437513
42
8.3230300753839064
10
333.81389166220578
20
-384.13163493000036
42
0.13182858521854515
10
334.77219118614295
20
-384.52689407411248
42
-0.14354408173500374
10
337.86226603289498
20
-385.88537782769157
42
0.13182858521853366
0
CIRCLE
5
110
100
AcDbEntity
8
0
100
AcDbCircle
10
309.57712872329699
20
-385.99958509632108
30
0
40
2.7000000000000304
210
0
220
0
230
1
0
CIRCLE
5
111
100
AcDbEntity
8
0
100
AcDbCircle
10
371.00000955216547
20
-390.50000934473252
30
0
40
2.7000000000000002
210
2.755818925393274e-48
220
3.0814879110195774e-33
230
1
0
CIRCLE
5
112
100
AcDbEntity
8
0
100
AcDbCircle
10
389.99996955371608
20
-371.00000934473269
30
0
40
2.7000000000000002
210
7.5631604827053415e-48
220
3.0814879110195774e-33
230
1
0
ENDSEC
0
SECTION
2
OBJECTS
0
DICTIONARY
5
C
100
AcDbDictionary
3
ACAD_GROUP
350
D
3
ACAD_MLINESTYLE
350
17
0
DICTIONARY
5
D
100
AcDbDictionary
0
DICTIONARY
5
1A
330
C
100
AcDbDictionary
0
DICTIONARY
5
17
100
AcDbDictionary
0
ENDSEC
0
EOF
