0
SECTION
2
HEADER
9
$INSUNITS
70
4
9
$ACADVER
1
AC1014
9
$HANDSEED
5
FFFF
0
ENDSEC
0
SECTION
2
TABLES
0
TABLE
2
VPORT
5
8
100
AcDbSymbolTable
0
ENDTAB
0
TABLE
2
LTYPE
5
5
100
AcDbSymbolTable
0
LTYPE
5
14
100
AcDbSymbolTableRecord
100
AcDbLinetypeTableRecord
2
BYBLOCK
70
0
0
LTYPE
5
15
100
AcDbSymbolTableRecord
100
AcDbLinetypeTableRecord
2
BYLAYER
70
0
0
ENDTAB
0
TABLE
2
LAYER
5
2
100
AcDbSymbolTable
70
2
0
LAYER
5
50
100
AcDbSymbolTableRecord
100
AcDbLayerTableRecord
2
0
70
0
6
CONTINUOUS
0
ENDTAB
0
TABLE
2
STYLE
5
3
100
AcDbSymbolTable
70
1
0
STYLE
5
11
100
AcDbSymbolTableRecord
100
AcDbTextStyleTableRecord
2
STANDARD
70
0
0
ENDTAB
0
TABLE
2
VIEW
5
6
100
AcDbSymbolTable
70
0
0
ENDTAB
0
TABLE
2
UCS
5
7
100
AcDbSymbolTable
70
0
0
ENDTAB
0
TABLE
2
APPID
5
9
100
AcDbSymbolTable
70
2
0
APPID
5
12
100
AcDbSymbolTableRecord
100
AcDbRegAppTableRecord
2
ACAD
70
0
0
ENDTAB
0
TABLE
2
DIMSTYLE
5
A
100
AcDbSymbolTable
70
1
0
ENDTAB
0
TABLE
2
BLOCK_RECORD
5
1
100
AcDbSymbolTable
70
1
0
BLOCK_RECORD
5
1F
100
AcDbSymbolTableRecord
100
AcDbBlockTableRecord
2
*MODEL_SPACE
0
BLOCK_RECORD
5
1B
100
AcDbSymbolTableRecord
100
AcDbBlockTableRecord
2
*PAPER_SPACE
0
ENDTAB
0
ENDSEC
0
SECTION
2
BLOCKS
0
BLOCK
5
20
100
AcDbEntity
100
AcDbBlockBegin
2
*MODEL_SPACE
0
ENDBLK
5
21
100
AcDbEntity
100
AcDbBlockEnd
0
BLOCK
5
1C
100
AcDbEntity
100
AcDbBlockBegin
2
*PAPER_SPACE
0
ENDBLK
5
1D
100
AcDbEntity
100
AcDbBlockEnd
0
ENDSEC
0
SECTION
2
ENTITIES
0
LWPOLYLINE
5
100
100
AcDbEntity
8
0
100
AcDbPolyline
90
25
70
1
43
0.0
10
-355.00019769593962
20
-160.72839960404542
42
0.41421356237310542
10
-354.00019769593968
20
-159.72839960404542
10
-354.00019769593968
20
-153.72839819275748
42
0.4142135623730222
10
-355.00019769593962
20
-152.72839819275742
10
-371.00045280020868
20
-152.72839851050819
42
0.093242669473214898
10
-376.45372531070365
20
-153.7542733546324
42
0.3090352178133553
10
-379.00019769593962
20
-157.48083443331035
10
-379.00019769593968
20
-165.22857128464338
42
-0.41421356237310542
10
-381.00019769593973
20
-167.22857128464338
10
-397.00019769593962
20
-167.2285712846444
42
0.41421356237309503
10
-400.00019769593962
20
-170.22857128464437
10
-400.00019769593962
20
-199.22857128464733
42
0.41421356237309853
10
-397.00019769593962
20
-202.22857128464739
10
-370.8939453792496
20
-202.22857128464642
42
0.15391472105983842
10
-365.15818101573882
20
-200.42009172753612
10
-362.7391138018387
20
-198.7262426289283
42
-0.15391472105980353
10
-360.44480805643474
20
-198.00285080608438
10
-358.00019769593968
20
-198.00285080608342
42
0.41421356237317047
10
-354.00019769593968
20
-194.00285080608342
10
-354.00019769593968
20
-189.72857128474539
42
0.41421356237309503
10
-355.00019769593962
20
-188.72857128474536
10
-361.00019769593956
20
-188.72857128474539
42
-0.41421356237335516
10
-362.00019769594064
20
-187.72857128474533
10
-362.00019769593962
20
-161.72839960404542
42
-0.41421356237311585
10
-361.00019769593973
20
-160.72839960404536
0
CIRCLE
5
101
100
AcDbEntity
8
0
100
AcDbCircle
10
-365.00019769593962
20
-156.72839889840134
30
0
40
1.6000000000000003
210
-5.0487097934144756e-29
220
2.1388347366220801e-44
230
1
0
CIRCLE
5
102
100
AcDbEntity
8
0
100
AcDbCircle
10
-372.90009613833064
20
-193.97857132096138
30
0
40
1.6000000000000003
210
-5.0487097934144756e-29
220
2.1388347366220801e-44
230
1
0
CIRCLE
5
103
100
AcDbEntity
8
0
100
AcDbCircle
10
-390.0001976959386
20
-192.72857128464639
30
0
40
3.1000000000000494
210
-5.0487097934144767e-29
220
9.998401817189858e-44
230
1
0
CIRCLE
5
104
100
AcDbEntity
8
0
100
AcDbCircle
10
-390.00019769593962
20
-176.72857128464636
30
0
40
3.1000000000000494
210
-5.0487097934144767e-29
220
9.998401817189858e-44
230
1
0
LWPOLYLINE
5
105
100
AcDbEntity
8
0
100
AcDbPolyline
90
4
70
1
43
0.0
10
-368.00019769594059
20
-167.72839960404539
10
-368.00019769594064
20
-177.72839960404539
42
-0.99999999999999989
10
-374.00019769594059
20
-177.72839960404539
10
-374.00019769594064
20
-167.72839960404539
42
-0.99999999999999989
0
ENDSEC
0
SECTION
2
OBJECTS
0
DICTIONARY
5
C
100
AcDbDictionary
3
ACAD_GROUP
350
D
3
ACAD_MLINESTYLE
350
17
0
DICTIONARY
5
D
100
AcDbDictionary
0
DICTIONARY
5
1A
330
C
100
AcDbDictionary
0
DICTIONARY
5
17
100
AcDbDictionary
0
ENDSEC
0
EOF
