0
SECTION
2
HEADER
9
$INSUNITS
70
4
9
$ACADVER
1
AC1014
9
$HANDSEED
5
FFFF
0
ENDSEC
0
SECTION
2
TABLES
0
TABLE
2
VPORT
5
8
100
AcDbSymbolTable
0
ENDTAB
0
TABLE
2
LTYPE
5
5
100
AcDbSymbolTable
0
LTYPE
5
14
100
AcDbSymbolTableRecord
100
AcDbLinetypeTableRecord
2
BYBLOCK
70
0
0
LTYPE
5
15
100
AcDbSymbolTableRecord
100
AcDbLinetypeTableRecord
2
BYLAYER
70
0
0
ENDTAB
0
TABLE
2
LAYER
5
2
100
AcDbSymbolTable
70
2
0
LAYER
5
50
100
AcDbSymbolTableRecord
100
AcDbLayerTableRecord
2
0
70
0
6
CONTINUOUS
0
ENDTAB
0
TABLE
2
STYLE
5
3
100
AcDbSymbolTable
70
1
0
STYLE
5
11
100
AcDbSymbolTableRecord
100
AcDbTextStyleTableRecord
2
STANDARD
70
0
0
ENDTAB
0
TABLE
2
VIEW
5
6
100
AcDbSymbolTable
70
0
0
ENDTAB
0
TABLE
2
UCS
5
7
100
AcDbSymbolTable
70
0
0
ENDTAB
0
TABLE
2
APPID
5
9
100
AcDbSymbolTable
70
2
0
APPID
5
12
100
AcDbSymbolTableRecord
100
AcDbRegAppTableRecord
2
ACAD
70
0
0
ENDTAB
0
TABLE
2
DIMSTYLE
5
A
100
AcDbSymbolTable
70
1
0
ENDTAB
0
TABLE
2
BLOCK_RECORD
5
1
100
AcDbSymbolTable
70
1
0
BLOCK_RECORD
5
1F
100
AcDbSymbolTableRecord
100
AcDbBlockTableRecord
2
*MODEL_SPACE
0
BLOCK_RECORD
5
1B
100
AcDbSymbolTableRecord
100
AcDbBlockTableRecord
2
*PAPER_SPACE
0
ENDTAB
0
ENDSEC
0
SECTION
2
BLOCKS
0
BLOCK
5
20
100
AcDbEntity
100
AcDbBlockBegin
2
*MODEL_SPACE
0
ENDBLK
5
21
100
AcDbEntity
100
AcDbBlockEnd
0
BLOCK
5
1C
100
AcDbEntity
100
AcDbBlockBegin
2
*PAPER_SPACE
0
ENDBLK
5
1D
100
AcDbEntity
100
AcDbBlockEnd
0
ENDSEC
0
SECTION
2
ENTITIES
0
LWPOLYLINE
5
100
100
AcDbEntity
8
0
100
AcDbPolyline
90
25
70
1
43
0.0
10
185.00029985459517
20
-160.72839960403343
42
0.41421356237307422
10
186.00029985459517
20
-159.72839960403343
10
186.00029985459514
20
-153.72839819274546
42
0.41421356237307422
10
185.00029985459517
20
-152.72839819274543
10
169.00004475032614
20
-152.72839851049511
42
0.093242669473203491
10
163.54677223983114
20
-153.75427335461941
42
0.30903521781333981
10
161.00029985459517
20
-157.48083443329747
10
161.0002998545952
20
-165.22857128463144
42
-0.41421356237307944
10
159.00029985459517
20
-167.22857128463144
10
143.00029985459514
20
-167.22857128463141
42
0.41421356237309503
10
140.00029985459514
20
-170.22857128463144
10
140.00029985459517
20
-199.22857128463539
42
0.41421356237309853
10
143.00029985459514
20
-202.22857128463545
10
169.10655217128516
20
-202.22857128463448
42
0.15391472105985313
10
174.84231653479637
20
-200.42009172752381
10
177.26138374869606
20
-198.72624262891537
42
-0.15391472105982681
10
179.55568949410014
20
-198.00285080607148
10
182.00029985459514
20
-198.0028508060704
42
0.41421356237317047
10
186.00029985459514
20
-194.0028508060704
10
186.00029985459514
20
-189.72857128473242
42
0.41421356237309503
10
185.00029985459517
20
-188.72857128473242
10
179.00029985459514
20
-188.72857128473245
42
-0.41421356237337598
10
178.00029985459412
20
-187.72857128473245
10
178.00029985459514
20
-161.72839960403246
42
-0.41421356237307422
10
179.00029985459514
20
-160.72839960403243
0
CIRCLE
5
101
100
AcDbEntity
8
0
100
AcDbCircle
10
175.00029985459517
20
-156.7283988983894
30
0
40
1.6000000000000003
210
6.5001637749435367e-48
220
-2.4651903288156619e-32
230
1
0
CIRCLE
5
102
100
AcDbEntity
8
0
100
AcDbCircle
10
167.10040141220415
20
-193.97857132094941
30
0
40
1.6000000000000003
210
6.5001637749435367e-48
220
-2.4651903288156619e-32
230
1
0
CIRCLE
5
103
100
AcDbEntity
8
0
100
AcDbCircle
10
150.00029985459614
20
-192.72857128463346
30
0
40
3.1000000000000494
210
-0
220
0
230
1
0
CIRCLE
5
104
100
AcDbEntity
8
0
100
AcDbCircle
10
150.00029985459517
20
-176.7285712846334
30
0
40
3.1000000000000494
210
-0
220
0
230
1
0
LWPOLYLINE
5
105
100
AcDbEntity
8
0
100
AcDbPolyline
90
4
70
1
43
0.0
10
172.00029985459412
20
-167.7283996040324
10
172.00029985459412
20
-177.7283996040324
42
-0.99999999999999989
10
166.00029985459412
20
-177.7283996040324
10
166.00029985459412
20
-167.7283996040324
42
-0.99999999999999989
0
ENDSEC
0
SECTION
2
OBJECTS
0
DICTIONARY
5
C
100
AcDbDictionary
3
ACAD_GROUP
350
D
3
ACAD_MLINESTYLE
350
17
0
DICTIONARY
5
D
100
AcDbDictionary
0
DICTIONARY
5
1A
330
C
100
AcDbDictionary
0
DICTIONARY
5
17
100
AcDbDictionary
0
ENDSEC
0
EOF
