0
SECTION
2
HEADER
9
$INSUNITS
70
4
9
$ACADVER
1
AC1014
9
$HANDSEED
5
FFFF
0
ENDSEC
0
SECTION
2
TABLES
0
TABLE
2
VPORT
5
8
100
AcDbSymbolTable
0
ENDTAB
0
TABLE
2
LTYPE
5
5
100
AcDbSymbolTable
0
LTYPE
5
14
100
AcDbSymbolTableRecord
100
AcDbLinetypeTableRecord
2
BYBLOCK
70
0
0
LTYPE
5
15
100
AcDbSymbolTableRecord
100
AcDbLinetypeTableRecord
2
BYLAYER
70
0
0
ENDTAB
0
TABLE
2
LAYER
5
2
100
AcDbSymbolTable
70
2
0
LAYER
5
50
100
AcDbSymbolTableRecord
100
AcDbLayerTableRecord
2
0
70
0
6
CONTINUOUS
0
ENDTAB
0
TABLE
2
STYLE
5
3
100
AcDbSymbolTable
70
1
0
STYLE
5
11
100
AcDbSymbolTableRecord
100
AcDbTextStyleTableRecord
2
STANDARD
70
0
0
ENDTAB
0
TABLE
2
VIEW
5
6
100
AcDbSymbolTable
70
0
0
ENDTAB
0
TABLE
2
UCS
5
7
100
AcDbSymbolTable
70
0
0
ENDTAB
0
TABLE
2
APPID
5
9
100
AcDbSymbolTable
70
2
0
APPID
5
12
100
AcDbSymbolTableRecord
100
AcDbRegAppTableRecord
2
ACAD
70
0
0
ENDTAB
0
TABLE
2
DIMSTYLE
5
A
100
AcDbSymbolTable
70
1
0
ENDTAB
0
TABLE
2
BLOCK_RECORD
5
1
100
AcDbSymbolTable
70
1
0
BLOCK_RECORD
5
1F
100
AcDbSymbolTableRecord
100
AcDbBlockTableRecord
2
*MODEL_SPACE
0
BLOCK_RECORD
5
1B
100
AcDbSymbolTableRecord
100
AcDbBlockTableRecord
2
*PAPER_SPACE
0
ENDTAB
0
ENDSEC
0
SECTION
2
BLOCKS
0
BLOCK
5
20
100
AcDbEntity
100
AcDbBlockBegin
2
*MODEL_SPACE
0
ENDBLK
5
21
100
AcDbEntity
100
AcDbBlockEnd
0
BLOCK
5
1C
100
AcDbEntity
100
AcDbBlockBegin
2
*PAPER_SPACE
0
ENDBLK
5
1D
100
AcDbEntity
100
AcDbBlockEnd
0
ENDSEC
0
SECTION
2
ENTITIES
0
LWPOLYLINE
5
100
100
AcDbEntity
8
0
100
AcDbPolyline
90
25
70
1
43
0.0
10
-186.00029985458917
20
-159.72839960403371
42
0.41421356237309503
10
-185.00029985458917
20
-160.72839960403371
10
-179.00029985458914
20
-160.72839960403374
42
-0.41421356237276202
10
-178.00029985459017
20
-161.72839960403371
10
-178.00029985458912
20
-187.72857128473373
42
-0.41421356237310542
10
-179.00029985458914
20
-188.72857128473379
10
-185.00029985458917
20
-188.72857128473373
42
0.41421356237338641
10
-186.00029985459017
20
-189.72857128473376
10
-186.00029985458914
20
-194.00285080607173
42
0.41421356237317047
10
-182.0002998545902
20
-198.00285080607273
10
-179.55568949409417
20
-198.00285080607176
42
-0.15391472105984216
10
-177.26138374869041
20
-198.7262426289162
10
-174.84231653479011
20
-200.42009172752475
42
0.15391472105981685
10
-169.10655217128013
20
-202.22857128463474
10
-143.00029985458912
20
-202.22857128463673
42
0.41421356237300139
10
-140.0002998545902
20
-199.22857128463673
10
-140.00029985459017
20
-170.22857128463278
42
0.41421356237309503
10
-143.00029985459017
20
-167.22857128463272
10
-159.00029985458917
20
-167.22857128463161
42
-0.41421356237325113
10
-161.0002998545902
20
-165.22857128463164
10
-161.00029985458914
20
-157.48083443329875
42
0.30903521781327442
10
-163.54677223982523
20
-153.75427335462101
42
0.093242669478427409
10
-169.00004475063017
20
-152.72839882853685
10
-185.00029985458917
20
-152.72839819274571
42
0.41421356237310542
10
-186.00029985458917
20
-153.72839819274566
0
CIRCLE
5
101
100
AcDbEntity
8
0
100
AcDbCircle
10
-182.00029985459511
20
-193.43987310401374
30
0
40
1.6000000000000003
210
0
220
-0
230
1
0
CIRCLE
5
102
100
AcDbEntity
8
0
100
AcDbCircle
10
-182.00029985459511
20
-156.72839889838869
30
0
40
1.6000000000000003
210
0
220
-0
230
1
0
CIRCLE
5
103
100
AcDbEntity
8
0
100
AcDbCircle
10
-169.00004475032713
20
-193.43987310401374
30
0
40
1.6000000000000003
210
0
220
-0
230
1
0
CIRCLE
5
104
100
AcDbEntity
8
0
100
AcDbCircle
10
-169.00004475032617
20
-156.72839889838869
30
0
40
1.6000000000000003
210
0
220
-0
230
1
0
CIRCLE
5
105
100
AcDbEntity
8
0
100
AcDbCircle
10
-150.00029985459116
20
-192.7285712846338
30
0
40
3.0999999999999899
210
-4.9807232204126754e-49
220
3.8518598887744717e-34
230
1
0
CIRCLE
5
106
100
AcDbEntity
8
0
100
AcDbCircle
10
-150.00029985459017
20
-176.72857128463471
30
0
40
3.0999999999999899
210
-4.9807232204126754e-49
220
3.8518598887744717e-34
230
1
0
LWPOLYLINE
5
107
100
AcDbEntity
8
0
100
AcDbPolyline
90
4
70
1
43
0.0
10
-166.00029985458914
20
-167.72839960403365
10
-166.00029985458914
20
-177.72839960403365
42
-0.99999999999999989
10
-172.00029985458914
20
-177.72839960403365
10
-172.00029985458914
20
-167.72839960403365
42
-0.99999999999999989
0
ENDSEC
0
SECTION
2
OBJECTS
0
DICTIONARY
5
C
100
AcDbDictionary
3
ACAD_GROUP
350
D
3
ACAD_MLINESTYLE
350
17
0
DICTIONARY
5
D
100
AcDbDictionary
0
DICTIONARY
5
1A
330
C
100
AcDbDictionary
0
DICTIONARY
5
17
100
AcDbDictionary
0
ENDSEC
0
EOF
