0
SECTION
2
HEADER
9
$INSUNITS
70
4
9
$ACADVER
1
AC1014
9
$HANDSEED
5
FFFF
0
ENDSEC
0
SECTION
2
TABLES
0
TABLE
2
VPORT
5
8
100
AcDbSymbolTable
0
ENDTAB
0
TABLE
2
LTYPE
5
5
100
AcDbSymbolTable
0
LTYPE
5
14
100
AcDbSymbolTableRecord
100
AcDbLinetypeTableRecord
2
BYBLOCK
70
0
0
LTYPE
5
15
100
AcDbSymbolTableRecord
100
AcDbLinetypeTableRecord
2
BYLAYER
70
0
0
ENDTAB
0
TABLE
2
LAYER
5
2
100
AcDbSymbolTable
70
2
0
LAYER
5
50
100
AcDbSymbolTableRecord
100
AcDbLayerTableRecord
2
0
70
0
6
CONTINUOUS
0
ENDTAB
0
TABLE
2
STYLE
5
3
100
AcDbSymbolTable
70
1
0
STYLE
5
11
100
AcDbSymbolTableRecord
100
AcDbTextStyleTableRecord
2
STANDARD
70
0
0
ENDTAB
0
TABLE
2
VIEW
5
6
100
AcDbSymbolTable
70
0
0
ENDTAB
0
TABLE
2
UCS
5
7
100
AcDbSymbolTable
70
0
0
ENDTAB
0
TABLE
2
APPID
5
9
100
AcDbSymbolTable
70
2
0
APPID
5
12
100
AcDbSymbolTableRecord
100
AcDbRegAppTableRecord
2
ACAD
70
0
0
ENDTAB
0
TABLE
2
DIMSTYLE
5
A
100
AcDbSymbolTable
70
1
0
ENDTAB
0
TABLE
2
BLOCK_RECORD
5
1
100
AcDbSymbolTable
70
1
0
BLOCK_RECORD
5
1F
100
AcDbSymbolTableRecord
100
AcDbBlockTableRecord
2
*MODEL_SPACE
0
BLOCK_RECORD
5
1B
100
AcDbSymbolTableRecord
100
AcDbBlockTableRecord
2
*PAPER_SPACE
0
ENDTAB
0
ENDSEC
0
SECTION
2
BLOCKS
0
BLOCK
5
20
100
AcDbEntity
100
AcDbBlockBegin
2
*MODEL_SPACE
0
ENDBLK
5
21
100
AcDbEntity
100
AcDbBlockEnd
0
BLOCK
5
1C
100
AcDbEntity
100
AcDbBlockBegin
2
*PAPER_SPACE
0
ENDBLK
5
1D
100
AcDbEntity
100
AcDbBlockEnd
0
ENDSEC
0
SECTION
2
ENTITIES
0
ARC
5
100
100
AcDbEntity
8
0
100
AcDbCircle
10
-180.36434118881419
20
-289.45577547606098
30
0
40
5
210
0
220
0
230
1
100
AcDbArc
50
269.99999999999545
51
291.82823746679219
0
LINE
5
101
100
AcDbEntity
8
0
100
AcDbLine
10
-178.50521427688767
20
-294.09728892808829
30
0
11
-173.74572255809989
21
-292.1909066170287
31
2.4651903288156619e-31
0
ARC
5
102
100
AcDbEntity
8
0
100
AcDbCircle
10
-171.88659564617376
20
-296.83242006905419
30
1.7931043887066522e-45
40
4.9999999999981544
210
2.1454151386883985e-33
220
8.5933156562340096e-34
230
1
100
AcDbArc
50
96.920662292082682
51
111.82823746679568
0
ARC
5
103
100
AcDbEntity
8
0
100
AcDbCircle
10
-175.16405540730091
20
-269.83060054676849
30
0
40
22.199999999999971
210
-2.4456152936936675e-32
220
-3.1033612512542617e-33
230
1
100
AcDbArc
50
276.92066229208598
51
297.95892414271827
0
ARC
5
104
100
AcDbEntity
8
0
100
AcDbCircle
10
-161.00513424261948
20
-296.5057753625461
30
0
40
7.9999999999994902
210
0
220
-0
230
1
100
AcDbArc
50
89.999993527778031
51
117.95892414271928
0
LINE
5
105
100
AcDbEntity
8
0
100
AcDbLine
10
-161.00513333892681
20
-288.50577536254667
30
0
11
-143.70021571826689
21
-288.50577731734694
31
0
0
ARC
5
106
100
AcDbEntity
8
0
100
AcDbCircle
10
-143.7002152664206
20
-284.50577731734688
30
0
40
4.0000000000000471
210
4.9303806576312707e-32
220
-5.5694355668771152e-39
230
1
100
AcDbArc
50
269.99999352777866
51
360
0
LINE
5
107
100
AcDbEntity
8
0
100
AcDbLine
10
-139.7002152664206
20
-284.50577731734711
30
-1.9721518174978679e-31
11
-139.70021526641858
21
-252.50577773529582
31
-3.944304526105059e-30
0
ARC
5
108
100
AcDbEntity
8
0
100
AcDbCircle
10
-143.70021526641858
20
-252.50577773529551
30
0
40
3.9999999999999858
210
9.8607613152627614e-31
220
9.8607613152547653e-32
230
1
100
AcDbArc
50
0
51
90.000000000005699
0
LINE
5
109
100
AcDbEntity
8
0
100
AcDbLine
10
-143.70021526641898
20
-248.50577773529551
30
-3.944304526105059e-31
11
-172.94923259174979
21
-248.50577773529849
31
-5.9164567891575885e-30
0
SPLINE
5
110
100
AcDbEntity
8
0
100
AcDbSpline
70
0
71
3
72
18
73
14
74
0
42
0.000000001
43
0.0000000001
44
0.0000000001
40
0
40
0
40
0
40
0
40
0.210128500797019
40
0.210128500797019
40
0.54381303691611604
40
0.54381303691611604
40
0.61582295924060804
40
0.61582295924060804
40
0.676614597580809
40
0.676614597580809
40
0.72071202345395402
40
0.72071202345395402
40
0.77545689377378102
40
0.77545689377378102
40
0.77545689377378102
40
0.77545689377378102
10
-172.94923259174979
20
-248.50577773529849
30
0
10
-173.64966079593188
20
-248.50620750927237
30
0
10
-174.36128339256129
20
-248.48195077851398
30
0
10
-176.16829481360938
20
-248.37206211949967
30
0
10
-176.99976561456057
20
-248.27355051024969
30
0
10
-177.86875978521726
20
-248.20343645710548
30
0
10
-178.01856542538258
20
-248.19283135987098
30
0
10
-178.30587425767138
20
-248.1768230274709
30
0
10
-178.4360472715363
20
-248.171164901596
30
0
10
-178.66286305214319
20
-248.16391835214847
30
0
10
-178.75804273294796
20
-248.1616667509843
30
0
10
-178.97177492653228
20
-248.15817034277259
30
0
10
-179.0901753135384
20
-248.15730465544959
30
0
10
-179.2085079772929
20
-248.15730651369918
30
0
0
LINE
5
111
100
AcDbEntity
8
0
100
AcDbLine
10
-179.20850797724458
20
-248.15728490955647
30
0
11
-185.9756181860086
21
-248.15728490955712
31
6.212279628615468e-29
0
SPLINE
5
112
100
AcDbEntity
8
0
100
AcDbSpline
70
0
71
3
72
12
73
8
74
0
42
0.000000001
43
0.0000000001
44
0.0000000001
40
0
40
0
40
0
40
0
40
0.11841746489694201
40
0.11841746489694201
40
0.19474041722706101
40
0.19474041722706101
40
0.27197965477024499
40
0.27197965477024499
40
0.27197965477024499
40
0.27197965477024499
10
-185.9756181860086
20
-248.15553453353442
30
0
10
-186.3703430272416
20
-248.15535297114718
30
0
10
-186.76471223567123
20
-248.23356296634898
30
0
10
-187.37027797988424
20
-248.4694263825028
30
0
10
-187.59729604898422
20
-248.58916777736439
30
0
10
-188.02002834815869
20
-248.87887420955872
30
0
10
-188.21549956650682
20
-249.0495368140044
30
0
10
-188.38687833421665
20
-249.24206264889131
30
0
0
ARC
5
113
100
AcDbEntity
8
0
100
AcDbCircle
10
-182.12012715010212
20
-254.83557775237998
30
0
40
8.400000000000011
210
-1.0639685873827625e-31
220
2.8879666985611497e-32
230
1
100
AcDbArc
50
138.24885094432153
51
163.05078368802535
0
LINE
5
114
100
AcDbEntity
8
0
100
AcDbLine
10
-190.15526073302931
20
-252.38677635077221
30
-9.2563354175821228e-31
11
-194.565850484191
21
-266.85903114726409
31
1.9721522630525295e-30
0
ARC
5
115
100
AcDbEntity
8
0
100
AcDbCircle
10
-185.00021526642055
20
-269.77427091108291
30
0
40
10.000000000000043
210
2.1739537491038812e-31
220
3.6831478735744987e-32
230
1
100
AcDbArc
50
163.05078368802506
51
180
0
LINE
5
116
100
AcDbEntity
8
0
100
AcDbLine
10
-195.00021526642055
20
-269.77427091108291
30
7.590870634343196e-31
11
-195.00021526642058
21
-292.45577547606013
31
0
0
ARC
5
117
100
AcDbEntity
8
0
100
AcDbCircle
10
-193.00021526642058
20
-292.45577547606007
30
0
40
1.9999999999999929
210
0
220
0
230
1
100
AcDbArc
50
180
51
269.99999999999756
0
LINE
5
118
100
AcDbEntity
8
0
100
AcDbLine
10
-193.00021526642067
20
-294.45577547606007
30
0
11
-180.36434118881459
21
-294.45577547606098
31
0
0
CIRCLE
5
119
100
AcDbEntity
8
0
100
AcDbCircle
10
-168.82691754065348
20
-267.95577547606081
30
0
40
2.1000000000000001
210
-4.9303806576313238e-32
220
1.1511797808905197e-47
230
1
0
CIRCLE
5
120
100
AcDbEntity
8
0
100
AcDbCircle
10
-186.45021528089313
20
-269.04368647606827
30
0
40
2.1000000000000001
210
-4.9303806576313238e-32
220
1.1511797808905197e-47
230
1
0
CIRCLE
5
121
100
AcDbEntity
8
0
100
AcDbCircle
10
-182.12012715010212
20
-254.83557775237998
30
0
40
2.1000000000000001
210
-4.9303806576313238e-32
220
1.1511797808905197e-47
230
1
0
CIRCLE
5
122
100
AcDbEntity
8
0
100
AcDbCircle
10
-171.12521526642109
20
-281.93077599760647
30
0
40
2.1000000000000001
210
-4.9303806576313238e-32
220
1.1511797808905197e-47
230
1
0
LWPOLYLINE
5
123
100
AcDbEntity
8
0
100
AcDbPolyline
90
8
70
1
43
0.0
10
-148.5002030593827
20
-282.50577736818059
10
-151.50020305938128
20
-282.50577736818059
42
-0.41421356237307944
10
-153.50020305938128
20
-280.5057773681807
10
-153.50020305938128
20
-256.50577736818059
42
-0.41421356237309503
10
-151.50020305938128
20
-254.50577736818062
10
-148.5002030593827
20
-254.50577736818062
42
-0.41421356237309503
10
-146.5002030593827
20
-256.50577736818059
10
-146.5002030593827
20
-280.50577736818059
42
-0.41421356237309503
0
CIRCLE
5
124
100
AcDbEntity
8
0
100
AcDbCircle
10
-186.45021528089393
20
-284.45577547606428
30
0
40
2.7000000000000002
210
4.930380657631326e-32
220
-9.8607613152626465e-32
230
1
0
CIRCLE
5
125
100
AcDbEntity
8
0
100
AcDbCircle
10
-157.50020877509019
20
-260.50577759409367
30
0
40
1.7000000000000002
210
0
220
-0
230
1
0
CIRCLE
5
126
100
AcDbEntity
8
0
100
AcDbCircle
10
-142.50020877509019
20
-276.50577759409367
30
0
40
1.7000000000000002
210
0
220
-0
230
1
0
CIRCLE
5
127
100
AcDbEntity
8
0
100
AcDbCircle
10
-157.50020877509019
20
-276.50577759409367
30
0
40
1.7000000000000002
210
0
220
-0
230
1
0
CIRCLE
5
128
100
AcDbEntity
8
0
100
AcDbCircle
10
-142.50020877509019
20
-260.50577759409367
30
0
40
1.7000000000000002
210
0
220
-0
230
1
0
ENDSEC
0
SECTION
2
OBJECTS
0
DICTIONARY
5
C
100
AcDbDictionary
3
ACAD_GROUP
350
D
3
ACAD_MLINESTYLE
350
17
0
DICTIONARY
5
D
100
AcDbDictionary
0
DICTIONARY
5
1A
330
C
100
AcDbDictionary
0
DICTIONARY
5
17
100
AcDbDictionary
0
ENDSEC
0
EOF
